<svg xmlns="http://www.w3.org/2000/svg" width="33" height="33" viewBox="0 0 33 33">
    <g fill="none" fill-rule="evenodd" transform="translate(.295 .836)">
        <path fill="#62B846" fill-rule="nonzero" d="M16 29.8c7.622 0 13.8-6.178 13.8-13.8 0-7.622-6.178-13.8-13.8-13.8C8.378 2.2 2.2 8.378 2.2 16c0 7.622 6.178 13.8 13.8 13.8zm0 2.2C7.163 32 0 24.837 0 16S7.163 0 16 0s16 7.163 16 16-7.163 16-16 16z"/>
        <path fill="#62B846" fill-rule="nonzero" d="M20.88 5.998A11.201 11.201 0 0 0 16.241 5C10.033 5 5 10.033 5 16.242c0 6.209 5.033 11.242 11.242 11.242 6.209 0 11.242-5.033 11.242-11.242 0-1.654-.357-3.225-.999-4.639a4.01 4.01 0 0 1-1.821 1.34 9.042 9.042 0 1 1-5.125-5.124 4.01 4.01 0 0 1 1.34-1.821z"/>
        <circle cx="23.348" cy="9.165" r="2.494" fill="#FEB43A"/>
        <path fill="#62B846" fill-rule="nonzero" d="M16.224 20.249a4.024 4.024 0 1 0 0-8.049 4.024 4.024 0 0 0 0 8.049zm0 2.2a6.224 6.224 0 1 1 0-12.449 6.224 6.224 0 0 1 0 12.449z"/>
        <path fill="#62B846" d="M15 1h2.2v29.935H15z"/>
        <path fill="#62B846" d="M31.6 15.4v2.2H.6v-2.2z"/>
    </g>
</svg>
