<svg xmlns="http://www.w3.org/2000/svg" width="33" height="33" viewBox="0 0 33 33">
    <g fill="#0083CA" fill-rule="evenodd" transform="translate(-1.705 -1.081)">
        <path fill-rule="nonzero" d="M18 31.8c7.622 0 13.8-6.178 13.8-13.8 0-7.622-6.178-13.8-13.8-13.8-7.622 0-13.8 6.178-13.8 13.8 0 7.622 6.178 13.8 13.8 13.8zm0 2.2C9.163 34 2 26.837 2 18S9.163 2 18 2s16 7.163 16 16-7.163 16-16 16z"/>
        <path fill-rule="nonzero" d="M22.88 7.998A11.201 11.201 0 0 0 18.241 7C12.033 7 7 12.033 7 18.242c0 6.209 5.033 11.242 11.242 11.242 6.209 0 11.242-5.033 11.242-11.242 0-1.654-.357-3.225-.999-4.639a4.01 4.01 0 0 1-1.821 1.34 9.042 9.042 0 1 1-5.125-5.124 4.01 4.01 0 0 1 1.34-1.821z"/>
        <circle cx="25.348" cy="11.165" r="2.494"/>
        <path fill-rule="nonzero" d="M18.224 22.249a4.024 4.024 0 1 0 0-8.049 4.024 4.024 0 0 0 0 8.049zm0 2.2a6.224 6.224 0 1 1 0-12.449 6.224 6.224 0 0 1 0 12.449z"/>
        <path d="M17 3h2.2v29.935H17z"/>
        <path d="M33.6 17.4v2.2h-31v-2.2z"/>
    </g>
</svg>
