<svg xmlns="http://www.w3.org/2000/svg" width="35" height="31" viewBox="0 0 35 31">
    <g fill="none" fill-rule="evenodd">
        <path fill="#62B846" fill-rule="nonzero" d="M9.664 12.177L15.67 1.873c.828-1.42 2.881-1.415 3.702.01l5.304 9.203-1.71 1.317-5.448-9.452-6.26 10.736-1.595-1.51zM1.013 27.015l-.09.153c-.83 1.426.198 3.217 1.85 3.217h29.324c1.646 0 2.675-1.782 1.853-3.208l-5.635-9.778-1.694 1.345 5.476 9.501H2.772l4.478-7.68-.023-.018-6.214 6.468z"/>
        <path stroke="#FEB43A" stroke-width="2.2" d="M1.288 21.39l6.165-6.05 4.034 4.222 5.689-5.402 3.693 4.44 12.304-9.8"/>
        <path stroke="#FEB43A" stroke-width="2.2" d="M28.72 8.135l4.622.404-.36 4.675"/>
    </g>
</svg>
