<svg xmlns="http://www.w3.org/2000/svg" width="24" height="34" viewBox="0 0 24 34">
    <g fill="#0083CA" fill-rule="evenodd">
        <path fill-rule="nonzero" d="M15.39 20.024v2.598c4.818-1.353 8.35-5.777 8.35-11.027 0-6.324-5.126-11.45-11.45-11.45C5.964.144.837 5.27.837 11.594c0 5.282 3.575 9.728 8.437 11.05v-2.663a8.85 8.85 0 1 1 6.115.041z"/>
        <path d="M17.79 24.748v2.2h-11v-2.2zM13.39 24.748h-2.2v-11h2.2z"/>
        <path d="M8.79 15.648v-2.2h7v2.2zM16.79 27.948v2.2h-9v-2.2zM15.79 31.148v2.2h-7v-2.2z"/>
    </g>
</svg>
