<svg xmlns="http://www.w3.org/2000/svg" width="24" height="34" viewBox="0 0 24 34">
    <g fill="none" fill-rule="evenodd">
        <path fill="#FEB43A" fill-rule="nonzero" d="M15.396 20.083v2.598c4.817-1.352 8.35-5.777 8.35-11.026 0-6.324-5.127-11.451-11.451-11.451C5.97.204.844 5.331.844 11.655c0 5.281 3.575 9.727 8.437 11.05v-2.663a8.85 8.85 0 1 1 6.115.041z"/>
        <path fill="#FEB43A" d="M17.794 24.808v2.2h-11v-2.2z"/>
        <path fill="#62B846" d="M13.395 24.808h-2.2v-11h2.2z"/>
        <path fill="#62B846" d="M8.794 15.708v-2.2h7v2.2z"/>
        <path fill="#FEB43A" d="M16.794 28.008v2.2h-9v-2.2zM15.794 31.208v2.2h-7v-2.2z"/>
    </g>
</svg>
