<svg xmlns="http://www.w3.org/2000/svg" width="33" height="33" viewBox="0 0 33 33">
    <g fill="#0083CA" fill-rule="evenodd">
        <path fill-rule="nonzero" d="M16.485 30.556c7.622 0 13.8-6.179 13.8-13.8 0-7.622-6.178-13.8-13.8-13.8-7.621 0-13.8 6.178-13.8 13.8 0 7.621 6.179 13.8 13.8 13.8zm0 2.2c-8.837 0-16-7.164-16-16 0-8.837 7.163-16 16-16s16 7.163 16 16c0 8.836-7.163 16-16 16z"/>
        <path d="M19.279 10.932h2.2v20.135h-2.2z"/>
        <path d="M10.332 10.931h11.146v7.19H10.332l3.669-3.712z"/>
    </g>
</svg>
