<svg xmlns="http://www.w3.org/2000/svg" width="24" height="36" viewBox="0 0 24 36">
    <defs>
        <linearGradient id="a" x1="50%" x2="50%" y1="100%" y2="0%">
            <stop offset="0%" stop-color="#A9A9A9"/>
            <stop offset="100%" stop-color="#FFF"/>
        </linearGradient>
    </defs>
    <path fill="url(#a)" fill-rule="evenodd" d="M51.302 27.429s-2.547-3.771-2.721-5.829c-.34-3.77-2.378-4.8-2.547-4.971 0-.343.17-.686.34-1.2.508-1.2-.17-2.571-.17-2.571s-.17.514-1.359 1.714l-.169.171v-.172c.51-1.2-.17-2.571-.17-2.571s-.169.514-1.358 1.715c-.849.856-1.019 1.542-1.019 1.714-6.788-.686-12.562 5.656-13.751 12.343C25.49 43.024 40.095 48 40.095 48s-2.378-6.857 1.868-12.857c2.886-4.114-.51-8.057-1.528-9.6-1.02-1.544-.51-3.429-.51-3.429.17 3.6 2.548 4.8 4.076 5.143 1.698.343 2.721 1.028 2.886 2.4.17.686.17.857.51 1.372.34.343 1.698 1.2 3.395.343 2.379-1.03.51-3.943.51-3.943z" transform="translate(-28 -12)"/>
</svg>
